<?xml version="1.0" standalone="no"?><!DOCTYPE svg PUBLIC "-//W3C//DTD SVG 1.1//EN" "http://www.w3.org/Graphics/SVG/1.1/DTD/svg11.dtd"><svg t="1579424509507" class="icon" viewBox="0 0 1024 1024" version="1.1" xmlns="http://www.w3.org/2000/svg" p-id="2189" width="48" height="48" xmlns:xlink="http://www.w3.org/1999/xlink"><defs><style type="text/css"></style></defs><path d="M512 40.96a327.68 327.68 0 1 0 327.68 327.68A327.68 327.68 0 0 0 512 40.96z" fill="#FFDA71" p-id="2190"></path><path d="M512 100.5568A268.0832 268.0832 0 1 0 780.0832 368.64 268.0832 268.0832 0 0 0 512 100.5568z" fill="#FFBE2C" p-id="2191"></path><path d="M368.5376 368.64l143.36-143.36 143.36 143.36-143.36 143.36z" fill="#FFDA71" p-id="2192"></path><path d="M512 0a20.48 20.48 0 0 1 20.48 20.48v225.28h-40.96V20.48a20.48 20.48 0 0 1 20.48-20.48zM491.52 491.52h40.96v259.4816h-40.96z" fill="#ED4A4A" p-id="2193"></path><path d="M450.56 720.896h122.88v61.44h-122.88z" fill="#DD3333" p-id="2194"></path><path d="M450.56 823.296h122.88V1024h-122.88z" fill="#ED4A4A" p-id="2195"></path><path d="M509.952 823.296h40.96V1024h-40.96z" fill="#F46262" p-id="2196"></path><path d="M450.56 782.336h122.88v40.96h-122.88z" fill="#FFDA71" p-id="2197"></path></svg>