<?xml version="1.0" standalone="no"?><!DOCTYPE svg PUBLIC "-//W3C//DTD SVG 1.1//EN" "http://www.w3.org/Graphics/SVG/1.1/DTD/svg11.dtd"><svg t="1582023142058" class="icon" viewBox="0 0 1024 1024" version="1.1" xmlns="http://www.w3.org/2000/svg" p-id="4571" xmlns:xlink="http://www.w3.org/1999/xlink" width="48" height="48"><defs><style type="text/css"></style></defs><path d="M297.6448 750.16704c-21.21984 0-38.33472-17.1136-38.33472-38.33472V312.37504c0-21.2224 17.11488-38.336 38.33472-38.336 21.22752 0 38.3424 17.1136 38.3424 38.336v399.45728c0 21.22112-17.11488 38.33472-38.3424 38.33472z m214.16192 0c-21.21856 0-38.33344-17.1136-38.33344-38.33472V312.37504c0-21.2224 17.11488-38.336 38.33344-38.336 21.22624 0 38.34112 17.1136 38.34112 38.336v399.45728c0 21.22112-17.11488 38.33472-38.34112 38.33472z m0 0" fill="#1296db" p-id="4572"></path><path d="M511.80672 550.49728H297.6448c-21.21984 0-38.33472-17.11488-38.33472-38.33472 0-21.22752 17.11488-38.3424 38.33472-38.3424h214.16064c21.22624 0 38.34112 17.11488 38.34112 38.3424 0.00128 21.10976-17.1136 38.33472-38.33984 38.33472z m214.16064 199.66976c-21.22112 0-38.33472-17.1136-38.33472-38.33472V479.98208c0-21.21984 17.1136-38.33472 38.33472-38.33472 21.22624 0 38.33984 17.11488 38.33984 38.33472v231.85024c0 21.22112-17.1136 38.33472-38.33984 38.33472z m0-360.77696c-21.22112 0-38.33472-17.1136-38.33472-38.336v-38.67904c0-21.2224 17.1136-38.336 38.33472-38.336 21.22624 0 38.33984 17.1136 38.33984 38.336v38.67904c0 21.2224-17.1136 38.336-38.33984 38.336z m0 0" fill="#1296db" p-id="4573"></path></svg>