<?xml version="1.0" standalone="no"?><!DOCTYPE svg PUBLIC "-//W3C//DTD SVG 1.1//EN" "http://www.w3.org/Graphics/SVG/1.1/DTD/svg11.dtd"><svg t="1582022691218" class="icon" viewBox="0 0 1024 1024" version="1.1" xmlns="http://www.w3.org/2000/svg" p-id="14848" xmlns:xlink="http://www.w3.org/1999/xlink" width="48" height="48"><defs><style type="text/css"></style></defs><path d="M378.119626 666.114029c-1.985498 16.313832-16.682275 27.914666-32.837472 25.918933-16.144962-2.005967-27.628099-16.866496-25.647718-33.190563l31.911247-262.730479c1.985498-16.324067 16.687392-27.9249 32.837472-25.924051 16.144962 2.011084 27.628099 16.866496 25.642601 33.190564l-31.90613 262.735596zM557.899284 666.114029c-1.98038 16.313832-16.687392 27.914666-32.832355 25.918933-16.144962-2.005967-27.622982-16.866496-25.642601-33.190563l31.90613-262.730479c1.98038-16.324067 16.687392-27.9249 32.832355-25.924051 16.155197 2.011084 27.633216 16.866496 25.652836 33.190564l-31.916365 262.735596z" fill="#4CA22E" p-id="14849"></path><path d="M552.239592 528.464791c0 14.998696-12.010215 27.141959-26.834923 27.141959H391.675254c-14.824709 0-26.840041-12.143263-26.840041-27.141959 0-14.983344 12.015332-27.126607 26.840041-27.126607h133.729415c14.814474-0.005117 26.834923 12.143263 26.834923 27.126607zM676.225739 664.133648c-1.903622 17.055835-17.127477 29.347499-34.019559 27.423409-16.871614-1.924091-29.040463-17.311698-27.131725-34.39312L632.974639 496.37444c1.903622-17.060952 17.137711-29.347499 34.019559-27.423409 16.886965 1.918973 29.035346 17.311698 27.141959 34.388003l-17.910418 160.794614zM699.872608 423.791192c-1.596586 15.935155-15.66394 27.546223-31.425107 25.939402-15.761168-1.611938-27.254539-15.827692-25.652836-31.767964l2.123664-21.313397c1.591469-15.930037 15.658823-27.546223 31.41999-25.934285 15.771402 1.60682 27.254539 15.832809 25.66307 31.767964l-2.128781 21.30828z" fill="#4CA22E" p-id="14850"></path><path d="M511.659702 0C229.529682 0 0 228.762092 0 509.945419c0 281.17821 229.529682 509.935185 511.639233 509.935185 1.60682 0.010235 8.648173 0.189339 19.604232 0.48614 42.800782 1.074625 143.022363 3.633256 217.007741 3.633256h0.025586c78.770018 0 92.642916-2.650742 100.226699-7.517258 15.699761-7.522376 18.99016-20.591863 19.670756-26.174797 2.824729-23.293778-17.204236-36.854523-40.405903-52.5594-5.639223-3.822595-14.328334-9.702329-20.837492-14.850296 146.553274-133.171633 220.200913-236.530096 216.383435-413.254748C1023.1403 228.593223 793.687377 0 511.659702 0z m244.835413 894.569086l-2.921957 2.609803-2.087843 3.336455c-17.188884 27.612747 3.254579 50.988401 25.350918 68.269396-8.13133 0.102345-17.593148 0.148401-28.569676 0.148401h-0.025586c-73.304782 0-173.035106-2.538162-215.641432-3.612787a1773.92455 1773.92455 0 0 0-20.944954-0.496375c-252.096808 0-457.19668-204.071302-457.19668-454.883677 0-250.827727 205.099872-454.883677 457.19668-454.883677s457.191563 204.05595 457.191562 454.883677v0.608954c3.582084 161.961351-65.613537 252.85928-212.351032 384.01983z" fill="#4CA22E" p-id="14851"></path></svg>